<svg xmlns="http://www.w3.org/2000/svg" height="512pt" version="1.1" viewBox="0 0 512 512" width="512pt">
<g id="surface1">
<path d="M 437 331 C 428.710938 331 422 324.289062 422 316 C 422 307.710938 428.710938 301 437 301 C 461.8125 301 482 280.8125 482 256 C 482 231.1875 461.8125 211 437 211 L 345 211 C 336.710938 211 330 204.289062 330 196 C 330 187.710938 336.710938 181 345 181 L 437 181 C 478.351562 181 512 214.648438 512 256 C 512 297.351562 478.351562 331 437 331 Z M 437 331 " style=" stroke:none;fill-rule:nonzero;fill:rgb(32.54902%,26.27451%,24.705882%);fill-opacity:1;" />
<path d="M 407 361 L 345 361 C 336.710938 361 330 354.289062 330 346 L 330 286 C 330 277.710938 336.710938 271 345 271 L 407 271 C 431.8125 271 452 291.1875 452 316 C 452 340.8125 431.8125 361 407 361 Z M 407 361 " style=" stroke:none;fill-rule:nonzero;fill:rgb(55.686275%,72.941176%,77.254902%);fill-opacity:1;" />
<path d="M 315 76 L 315 106 C 315 114.402344 308.402344 121 300 121 C 291.597656 121 285 114.402344 285 106 L 285 76 C 285 51.097656 264.902344 30 240 30 C 215.097656 30 195 51.097656 195 76 L 195 106 C 195 114.402344 188.402344 121 180 121 C 171.597656 121 165 114.402344 165 106 L 165 76 C 165 51.097656 144.902344 30 120 30 C 95.097656 30 75 51.097656 75 76 L 75 106 C 75 114.402344 68.402344 121 60 121 C 51.597656 121 45 114.402344 45 106 L 45 76 C 45 34.601562 78.601562 0 120 0 C 144.601562 0 166.199219 11.699219 180 30 C 193.800781 11.699219 215.398438 0 240 0 C 281.398438 0 315 34.601562 315 76 Z M 315 76 " style=" stroke:none;fill-rule:nonzero;fill:rgb(40.784314%,32.941176%,30.980392%);fill-opacity:1;" />
<path d="M 180 121 L 180 30 C 193.800781 11.699219 215.398438 0 240 0 C 281.398438 0 315 34.601562 315 76 L 315 106 C 315 114.402344 308.402344 121 300 121 C 291.597656 121 285 114.402344 285 106 L 285 76 C 285 51.097656 264.902344 30 240 30 C 215.097656 30 195 51.097656 195 76 L 195 106 C 195 114.402344 188.402344 121 180 121 Z M 180 121 " style=" stroke:none;fill-rule:nonzero;fill:rgb(32.54902%,26.27451%,24.705882%);fill-opacity:1;" />
<path d="M 360 151 L 330 166 L 360 181 L 360 241 L 330 271 L 330 361 L 360 391 L 360 482 C 360 498.5 346.5 512 330 512 L 270 512 C 253.5 512 240 498.5 240 482 L 240 181 L 270 166 L 240 151 L 240 121 C 240 104.5 253.5 91 270 91 L 330 91 C 346.5 91 360 104.5 360 121 Z M 360 151 " style=" stroke:none;fill-rule:nonzero;fill:rgb(100%,28.627451%,28.627451%);fill-opacity:1;" />
<path d="M 120 121 C 120 104.5 106.5 91 90 91 L 30 91 C 13.5 91 0 104.5 0 121 L 0 151 L 30 166 L 0 181 L 0 241 L 30 308.5 L 0 391 L 0 482 C 0 498.5 13.5 512 30 512 L 90 512 C 106.5 512 120 498.5 120 482 L 120 181 L 90 166 L 120 151 Z M 120 121 " style=" stroke:none;fill-rule:nonzero;fill:rgb(100%,28.627451%,28.627451%);fill-opacity:1;" />
<path d="M 120 151 L 90 166 L 120 181 L 120 482 C 120 498.5 106.5 512 90 512 L 60 512 L 60 91 L 90 91 C 106.5 91 120 104.5 120 121 Z M 120 151 " style=" stroke:none;fill-rule:nonzero;fill:rgb(100%,9.803922%,23.921569%);fill-opacity:1;" />
<path d="M 0 151 L 120 151 L 120 181 L 0 181 Z M 0 151 " style=" stroke:none;fill-rule:nonzero;fill:rgb(40.784314%,32.941176%,30.980392%);fill-opacity:1;" />
<path d="M 60 151 L 120 151 L 120 181 L 60 181 Z M 60 151 " style=" stroke:none;fill-rule:nonzero;fill:rgb(32.54902%,26.27451%,24.705882%);fill-opacity:1;" />
<path d="M 240 151 L 210 166 L 240 181 L 240 482 C 240 498.5 226.5 512 210 512 L 150 512 C 133.5 512 120 498.5 120 482 L 120 181 L 150 166 L 120 151 L 120 121 C 120 104.5 133.5 91 150 91 L 210 91 C 226.5 91 240 104.5 240 121 Z M 240 151 " style=" stroke:none;fill-rule:nonzero;fill:rgb(100%,28.627451%,28.627451%);fill-opacity:1;" />
<path d="M 240 151 L 210 166 L 240 181 L 240 482 C 240 498.5 226.5 512 210 512 L 180 512 L 180 91 L 210 91 C 226.5 91 240 104.5 240 121 Z M 240 151 " style=" stroke:none;fill-rule:nonzero;fill:rgb(100%,9.803922%,23.921569%);fill-opacity:1;" />
<path d="M 120 151 L 240 151 L 240 181 L 120 181 Z M 120 151 " style=" stroke:none;fill-rule:nonzero;fill:rgb(40.784314%,32.941176%,30.980392%);fill-opacity:1;" />
<path d="M 180 151 L 240 151 L 240 181 L 180 181 Z M 180 151 " style=" stroke:none;fill-rule:nonzero;fill:rgb(32.54902%,26.27451%,24.705882%);fill-opacity:1;" />
<path d="M 360 151 L 330 166 L 360 181 L 360 241 L 330 271 L 330 361 L 360 391 L 360 482 C 360 498.5 346.5 512 330 512 L 300 512 L 300 91 L 330 91 C 346.5 91 360 104.5 360 121 Z M 360 151 " style=" stroke:none;fill-rule:nonzero;fill:rgb(100%,9.803922%,23.921569%);fill-opacity:1;" />
<path d="M 240 151 L 360 151 L 360 181 L 240 181 Z M 240 151 " style=" stroke:none;fill-rule:nonzero;fill:rgb(40.784314%,32.941176%,30.980392%);fill-opacity:1;" />
<path d="M 300 151 L 360 151 L 360 181 L 300 181 Z M 300 151 " style=" stroke:none;fill-rule:nonzero;fill:rgb(32.54902%,26.27451%,24.705882%);fill-opacity:1;" />
<path d="M 0 241 L 0 391 L 360 391 L 360 241 Z M 0 241 " style=" stroke:none;fill-rule:nonzero;fill:rgb(74.117647%,99.215686%,100%);fill-opacity:1;" />
<path d="M 180 241 L 360 241 L 360 391 L 180 391 Z M 180 241 " style=" stroke:none;fill-rule:nonzero;fill:rgb(60.784314%,98.431373%,100%);fill-opacity:1;" />
<path d="M 30 271 L 330 271 L 330 361 L 30 361 Z M 30 271 " style=" stroke:none;fill-rule:nonzero;fill:rgb(32.54902%,26.27451%,24.705882%);fill-opacity:1;" />
<path d="M 180 271 L 330 271 L 330 361 L 180 361 Z M 180 271 " style=" stroke:none;fill-rule:nonzero;fill:rgb(24.313725%,19.607843%,18.039216%);fill-opacity:1;" />
<path d="M 120 331 L 60 331 C 51.710938 331 45 324.289062 45 316 C 45 307.710938 51.710938 301 60 301 L 120 301 C 128.289062 301 135 307.710938 135 316 C 135 324.289062 128.289062 331 120 331 Z M 120 331 " style=" stroke:none;fill-rule:nonzero;fill:rgb(100%,42.352941%,42.352941%);fill-opacity:1;" />
<path d="M 300 331 L 240 331 C 231.710938 331 225 324.289062 225 316 C 225 307.710938 231.710938 301 240 301 L 300 301 C 308.289062 301 315 307.710938 315 316 C 315 324.289062 308.289062 331 300 331 Z M 300 331 " style=" stroke:none;fill-rule:nonzero;fill:rgb(100%,28.627451%,28.627451%);fill-opacity:1;" />
<path d="M 195 316 C 195 324.398438 188.402344 331 180 331 C 171.597656 331 165 324.398438 165 316 C 165 307.597656 171.597656 301 180 301 C 188.402344 301 195 307.597656 195 316 Z M 195 316 " style=" stroke:none;fill-rule:nonzero;fill:rgb(100%,42.352941%,42.352941%);fill-opacity:1;" />
<path d="M 195 316 C 195 324.398438 188.402344 331 180 331 L 180 301 C 188.402344 301 195 307.597656 195 316 Z M 195 316 " style=" stroke:none;fill-rule:nonzero;fill:rgb(100%,28.627451%,28.627451%);fill-opacity:1;" />
</g>
</svg>